<svg width="1440" height="582" viewBox="0 0 1440 582" fill="none" xmlns="http://www.w3.org/2000/svg">
<g filter="url(#filter0_d_45_230)">
<path d="M108.506 524.507C56.8941 520.219 -8 512.319 -8 512.319V208.959L1445.48 207.153V480.267C1445.48 480.267 1422.57 476.395 1407.53 475.076C1365.17 471.361 1339.62 473.738 1298.23 480.267C1265.71 485.398 1248.23 490.967 1219.28 500.191L1216.64 501.033C1178.3 513.244 1163.62 526.835 1124.8 538.501L1121.84 539.391C1076.67 552.974 1047.93 561.616 996.53 562.653C956.692 563.456 938.5 563.329 900.044 557.091C873.275 552.749 887.553 555.233 856.137 548.054C802.17 535.723 777.407 524.507 709.654 501.033C654.481 481.917 617.475 474.303 554.086 469.889C505.953 466.536 459.611 466.696 413.242 475.076C379.664 481.144 334.686 501.033 334.686 501.033C334.686 501.033 288.987 518.187 236.776 524.507C184.565 530.827 160.117 528.796 108.506 524.507Z" fill="url(#paint0_linear_45_230)"/>
</g>
<path d="M108.506 460.086C56.8941 455.798 -8 447.898 -8 447.898V144.538L1445.48 142.732V415.846C1445.48 415.846 1422.57 411.974 1407.53 410.655C1365.17 406.94 1339.62 409.317 1298.23 415.846C1265.71 420.977 1248.23 426.546 1219.28 435.771L1216.64 436.612C1178.3 448.823 1163.62 462.414 1124.8 474.08L1121.84 474.97C1076.67 488.553 1047.93 497.195 996.53 498.232C956.692 499.035 938.5 498.908 900.044 492.67C873.275 488.328 887.553 490.812 856.137 483.633C802.17 471.302 777.407 460.086 709.654 436.612C654.481 417.496 617.475 409.882 554.086 405.468C505.953 402.116 459.611 402.275 413.242 410.655C379.664 416.723 334.686 436.612 334.686 436.612C334.686 436.612 288.987 453.766 236.776 460.086C184.565 466.406 160.117 464.375 108.506 460.086Z" fill="url(#paint1_linear_45_230)"/>
<path d="M108.506 395.476C56.8941 391.187 -8 383.287 -8 383.287V79.9273L1445.48 78.1216V351.236C1445.48 351.236 1422.57 347.364 1407.53 346.044C1365.17 342.33 1339.62 344.707 1298.23 351.236C1265.71 356.366 1248.23 361.936 1219.28 371.16L1216.64 372.002C1178.3 384.212 1163.62 397.803 1124.8 409.47L1121.84 410.36C1076.67 423.943 1047.93 432.585 996.53 433.622C956.692 434.425 938.5 434.297 900.044 428.059C873.275 423.717 887.553 426.202 856.137 419.023C802.17 406.692 777.407 395.476 709.654 372.002C654.481 352.886 617.475 345.272 554.086 340.857C505.953 337.505 459.611 337.665 413.242 346.044C379.664 352.113 334.686 372.002 334.686 372.002C334.686 372.002 288.987 389.156 236.776 395.476C184.565 401.796 160.117 399.764 108.506 395.476Z" fill="url(#paint2_linear_45_230)"/>
<path d="M108.506 323.184C56.8941 318.895 -8 310.995 -8 310.995V7.6353L1445.48 5.82959V278.944C1445.48 278.944 1422.57 275.072 1407.53 273.752C1365.17 270.038 1339.62 272.415 1298.23 278.944C1265.71 284.074 1248.23 289.644 1219.28 298.868L1216.64 299.71C1178.3 311.921 1163.62 325.512 1124.8 337.178L1121.84 338.068C1076.67 351.651 1047.93 360.293 996.53 361.33C956.692 362.133 938.5 362.005 900.044 355.767C873.275 351.425 887.553 353.91 856.137 346.731C802.17 334.4 777.407 323.184 709.654 299.71C654.481 280.594 617.475 272.98 554.086 268.565C505.953 265.213 459.611 265.373 413.242 273.752C379.664 279.821 334.686 299.71 334.686 299.71C334.686 299.71 288.987 316.864 236.776 323.184C184.565 329.504 160.117 327.472 108.506 323.184Z" fill="url(#paint3_linear_45_230)"/>
<path d="M108.506 246.374C56.8941 242.085 -8 234.185 -8 234.185V-69.1748L1445.48 -70.9805V202.134C1445.48 202.134 1422.57 198.262 1407.53 196.942C1365.17 193.228 1339.62 195.605 1298.23 202.134C1265.71 207.264 1248.23 212.834 1219.28 222.058L1216.64 222.899C1178.3 235.11 1163.62 248.701 1124.8 260.368L1121.84 261.258C1076.67 274.841 1047.93 283.483 996.53 284.52C956.692 285.323 938.5 285.195 900.044 278.957C873.275 274.615 887.553 277.099 856.137 269.921C802.17 257.59 777.407 246.374 709.654 222.9C654.481 203.784 617.475 196.17 554.086 191.755C505.953 188.403 459.611 188.563 413.242 196.942C379.664 203.011 334.686 222.899 334.686 222.899C334.686 222.899 288.987 240.054 236.776 246.374C184.565 252.694 160.117 250.662 108.506 246.374Z" fill="url(#paint4_linear_45_230)"/>
<path d="M108.506 246.374C56.8941 242.085 -8 234.185 -8 234.185V-69.1748L1445.48 -70.9805V202.134C1445.48 202.134 1422.57 198.262 1407.53 196.942C1365.17 193.228 1339.62 195.605 1298.23 202.134C1265.71 207.264 1248.23 212.834 1219.28 222.058L1216.64 222.899C1178.3 235.11 1163.62 248.701 1124.8 260.368L1121.84 261.258C1076.67 274.841 1047.93 283.483 996.53 284.52C956.692 285.323 938.5 285.195 900.044 278.957C873.275 274.615 887.553 277.099 856.137 269.921C802.17 257.59 777.407 246.374 709.654 222.9C654.481 203.784 617.475 196.17 554.086 191.755C505.953 188.403 459.611 188.563 413.242 196.942C379.664 203.011 334.686 222.899 334.686 222.899C334.686 222.899 288.987 240.054 236.776 246.374C184.565 252.694 160.117 250.662 108.506 246.374Z" fill="url(#paint5_linear_45_230)"/>
<path d="M108.506 169.563C56.8941 165.275 -8 157.375 -8 157.375V-145.985L1445.48 -147.791V125.323C1445.48 125.323 1422.57 121.451 1407.53 120.132C1365.17 116.417 1339.62 118.794 1298.23 125.323C1265.71 130.454 1248.23 136.023 1219.28 145.248L1216.64 146.089C1178.3 158.3 1163.62 171.891 1124.8 183.557L1121.84 184.447C1076.67 198.03 1047.93 206.672 996.53 207.709C956.692 208.512 938.5 208.385 900.044 202.147C873.275 197.805 887.553 200.289 856.137 193.11C802.17 180.779 777.407 169.563 709.654 146.089C654.481 126.973 617.475 119.359 554.086 114.945C505.953 111.593 459.611 111.752 413.242 120.132C379.664 126.2 334.686 146.089 334.686 146.089C334.686 146.089 288.987 163.243 236.776 169.563C184.565 175.883 160.117 173.852 108.506 169.563Z" fill="url(#paint6_linear_45_230)"/>
<path d="M108.506 169.563C56.8941 165.275 -8 157.375 -8 157.375V-145.985L1445.48 -147.791V125.323C1445.48 125.323 1422.57 121.451 1407.53 120.132C1365.17 116.417 1339.62 118.794 1298.23 125.323C1265.71 130.454 1248.23 136.023 1219.28 145.248L1216.64 146.089C1178.3 158.3 1163.62 171.891 1124.8 183.557L1121.84 184.447C1076.67 198.03 1047.93 206.672 996.53 207.709C956.692 208.512 938.5 208.385 900.044 202.147C873.275 197.805 887.553 200.289 856.137 193.11C802.17 180.779 777.407 169.563 709.654 146.089C654.481 126.973 617.475 119.359 554.086 114.945C505.953 111.593 459.611 111.752 413.242 120.132C379.664 126.2 334.686 146.089 334.686 146.089C334.686 146.089 288.987 163.243 236.776 169.563C184.565 175.883 160.117 173.852 108.506 169.563Z" fill="url(#paint7_linear_45_230)"/>
<path d="M114.506 83.4265C62.8941 79.1379 -2 71.2379 -2 71.2379V-232.122L1451.48 -233.928V39.1865C1451.48 39.1865 1428.57 35.3143 1413.53 33.9951C1371.17 30.2806 1345.62 32.6577 1304.23 39.1865C1271.71 44.317 1254.23 49.8864 1225.28 59.1108L1222.64 59.9522C1184.3 72.1632 1169.62 85.7542 1130.8 97.4208L1127.84 98.3105C1082.67 111.893 1053.93 120.536 1002.53 121.572C962.692 122.376 944.5 122.248 906.044 116.01C879.275 111.668 893.553 114.152 862.137 106.974C808.17 94.6426 783.407 83.4265 715.654 59.9522C660.481 40.8368 623.475 33.2227 560.086 28.8081C511.953 25.4559 465.611 25.6153 419.242 33.9951C385.664 40.0634 340.686 59.9522 340.686 59.9522C340.686 59.9522 294.987 77.1065 242.776 83.4265C190.565 89.7465 166.117 87.7151 114.506 83.4265Z" fill="url(#paint8_linear_45_230)"/>
<path d="M110.506 14.3542C58.8941 10.0657 -6 2.16571 -6 2.16571V-301.194L1447.48 -303V-29.8857C1447.48 -29.8857 1424.57 -33.7579 1409.53 -35.0771C1367.17 -38.7917 1341.62 -36.4145 1300.23 -29.8857C1267.71 -24.7552 1250.23 -19.1858 1221.28 -9.96121L1218.64 -9.12003C1180.3 3.09091 1165.62 16.6819 1126.8 28.3485L1123.84 29.2381C1078.67 42.8209 1049.93 51.4633 998.53 52.5C958.692 53.3035 940.5 53.1758 902.044 46.9379C875.275 42.5959 889.553 45.08 858.137 37.9014C804.17 25.5703 779.407 14.3543 711.654 -9.12003C656.481 -28.2355 619.475 -35.8495 556.086 -40.2642C507.953 -43.6164 461.611 -43.457 415.242 -35.0771C381.664 -29.0089 336.686 -9.12003 336.686 -9.12003C336.686 -9.12003 290.987 8.03424 238.776 14.3542C186.565 20.6743 162.117 18.6428 110.506 14.3542Z" fill="url(#paint9_linear_45_230)"/>
<defs>
<filter id="filter0_d_45_230" x="-23" y="196.153" width="1483.47" height="385.847" filterUnits="userSpaceOnUse" color-interpolation-filters="sRGB">
<feFlood flood-opacity="0" result="BackgroundImageFix"/>
<feColorMatrix in="SourceAlpha" type="matrix" values="0 0 0 0 0 0 0 0 0 0 0 0 0 0 0 0 0 0 127 0" result="hardAlpha"/>
<feOffset dy="4"/>
<feGaussianBlur stdDeviation="7.5"/>
<feComposite in2="hardAlpha" operator="out"/>
<feColorMatrix type="matrix" values="0 0 0 0 0 0 0 0 0 0 0 0 0 0 0 0 0 0 0.1 0"/>
<feBlend mode="normal" in2="BackgroundImageFix" result="effect1_dropShadow_45_230"/>
<feBlend mode="normal" in="SourceGraphic" in2="effect1_dropShadow_45_230" result="shape"/>
</filter>
<linearGradient id="paint0_linear_45_230" x1="718.738" y1="563" x2="718.738" y2="207.153" gradientUnits="userSpaceOnUse">
<stop stop-color="#182754"/>
<stop offset="0.25" stop-color="#1E3068"/>
<stop offset="0.5" stop-color="#24397B"/>
<stop offset="0.75" stop-color="#2A5393"/>
<stop offset="1" stop-color="#5B84C4"/>
</linearGradient>
<linearGradient id="paint1_linear_45_230" x1="718.738" y1="498.579" x2="718.738" y2="142.732" gradientUnits="userSpaceOnUse">
<stop stop-color="#182754"/>
<stop offset="0.25" stop-color="#1E3068"/>
<stop offset="0.5" stop-color="#24397B"/>
<stop offset="0.75" stop-color="#2A5393"/>
<stop offset="1" stop-color="#5B84C4"/>
</linearGradient>
<linearGradient id="paint2_linear_45_230" x1="718.738" y1="433.969" x2="718.738" y2="78.1216" gradientUnits="userSpaceOnUse">
<stop stop-color="#182754"/>
<stop offset="0.25" stop-color="#1E3068"/>
<stop offset="0.5" stop-color="#24397B"/>
<stop offset="0.75" stop-color="#2A5393"/>
<stop offset="1" stop-color="#5B84C4"/>
</linearGradient>
<linearGradient id="paint3_linear_45_230" x1="718.738" y1="361.677" x2="718.738" y2="5.82959" gradientUnits="userSpaceOnUse">
<stop stop-color="#182754"/>
<stop offset="0.25" stop-color="#1E3068"/>
<stop offset="0.5" stop-color="#24397B"/>
<stop offset="0.75" stop-color="#2A5393"/>
<stop offset="1" stop-color="#5B84C4"/>
</linearGradient>
<linearGradient id="paint4_linear_45_230" x1="718.738" y1="284.867" x2="718.738" y2="-70.9805" gradientUnits="userSpaceOnUse">
<stop stop-color="#182754"/>
<stop offset="0.25" stop-color="#1E3068"/>
<stop offset="0.5" stop-color="#24397B"/>
<stop offset="0.75" stop-color="#2A5393"/>
<stop offset="1" stop-color="#5B84C4"/>
</linearGradient>
<linearGradient id="paint5_linear_45_230" x1="718.738" y1="284.867" x2="718.738" y2="-70.9805" gradientUnits="userSpaceOnUse">
<stop stop-color="#182754"/>
<stop offset="0.25" stop-color="#1E3068"/>
<stop offset="0.5" stop-color="#24397B"/>
<stop offset="0.75" stop-color="#2A5393"/>
<stop offset="1" stop-color="#5B84C4"/>
</linearGradient>
<linearGradient id="paint6_linear_45_230" x1="718.738" y1="208.056" x2="718.738" y2="-147.791" gradientUnits="userSpaceOnUse">
<stop stop-color="#182754"/>
<stop offset="0.25" stop-color="#1E3068"/>
<stop offset="0.5" stop-color="#24397B"/>
<stop offset="0.75" stop-color="#2A5393"/>
<stop offset="1" stop-color="#5B84C4"/>
</linearGradient>
<linearGradient id="paint7_linear_45_230" x1="718.738" y1="208.056" x2="718.738" y2="-147.791" gradientUnits="userSpaceOnUse">
<stop stop-color="#182754"/>
<stop offset="0.25" stop-color="#1E3068"/>
<stop offset="0.5" stop-color="#24397B"/>
<stop offset="0.75" stop-color="#2A5393"/>
<stop offset="1" stop-color="#5B84C4"/>
</linearGradient>
<linearGradient id="paint8_linear_45_230" x1="724.738" y1="121.919" x2="724.738" y2="-233.928" gradientUnits="userSpaceOnUse">
<stop stop-color="#182754"/>
<stop offset="0.25" stop-color="#1E3068"/>
<stop offset="0.5" stop-color="#24397B"/>
<stop offset="0.75" stop-color="#2A5393"/>
<stop offset="1" stop-color="#5B84C4"/>
</linearGradient>
<linearGradient id="paint9_linear_45_230" x1="720.738" y1="52.8471" x2="720.738" y2="-303" gradientUnits="userSpaceOnUse">
<stop stop-color="#182754"/>
<stop offset="0.25" stop-color="#1E3068"/>
<stop offset="0.5" stop-color="#24397B"/>
<stop offset="0.75" stop-color="#2A5393"/>
<stop offset="1" stop-color="#5B84C4"/>
</linearGradient>
</defs>
</svg>
